<?xml version="1.0" encoding="UTF-8" standalone="no"?>
<svg
   xmlns:dc="http://purl.org/dc/elements/1.1/"
   xmlns:cc="http://creativecommons.org/ns#"
   xmlns:rdf="http://www.w3.org/1999/02/22-rdf-syntax-ns#"
   xmlns:svg="http://www.w3.org/2000/svg"
   xmlns="http://www.w3.org/2000/svg"
   xmlns:sodipodi="http://sodipodi.sourceforge.net/DTD/sodipodi-0.dtd"
   xmlns:inkscape="http://www.inkscape.org/namespaces/inkscape"
   version="1.1"
   id="Vrstva_1"
   x="0px"
   y="0px"
   viewBox="0 0 7937 4252"
   style="enable-background:new 0 0 7937 4252;"
   xml:space="preserve"
   sodipodi:docname="logo_.svg"
   inkscape:version="1.0 (4035a4fb49, 2020-05-01)"
   inkscape:export-filename="C:\Users\petrs\Desktop\bitmap.png"
   inkscape:export-xdpi="6"
   inkscape:export-ydpi="6"><metadata
   id="metadata61"><rdf:RDF><cc:Work
       rdf:about=""><dc:format>image/svg+xml</dc:format><dc:type
         rdf:resource="http://purl.org/dc/dcmitype/StillImage" /><dc:title></dc:title></cc:Work></rdf:RDF></metadata><defs
   id="defs59" /><sodipodi:namedview
   inkscape:document-rotation="0"
   pagecolor="#ffffff"
   bordercolor="#666666"
   borderopacity="1"
   objecttolerance="10"
   gridtolerance="10"
   guidetolerance="10"
   inkscape:pageopacity="0"
   inkscape:pageshadow="2"
   inkscape:window-width="1920"
   inkscape:window-height="1017"
   id="namedview57"
   showgrid="false"
   inkscape:zoom="0.087764037"
   inkscape:cx="6052.3992"
   inkscape:cy="2260.2452"
   inkscape:window-x="-8"
   inkscape:window-y="-8"
   inkscape:window-maximized="1"
   inkscape:current-layer="Vrstva_1" />
<style
   type="text/css"
   id="style2">
	.st0{fill:#FFFFFF;}
	.st1{fill:#00AEEF;}
</style>
<path
   class="st0"
   d="m 606.18237,2479.3231 c -54.44091,39.5392 -131.13503,55.633 -218.75708,55.633 H 38.725304 V 1681.7836 H 329.20928 c 77.88626,0 153.38826,6.1594 210.21344,35.9628 56.82518,29.6048 108.88182,85.2378 108.88182,179.2179 0,93.9801 -60.60029,165.707 -124.97567,187.9602 v 2.3843 c 106.29886,26.0283 176.83361,97.7552 176.83361,202.6632 0,94.1788 -39.5392,149.8119 -93.98011,189.3511 M 409.67851,1847.4906 c -23.44536,-14.9017 -45.69858,-17.2859 -89.01288,-17.2859 h -82.8535 v 196.5038 h 77.88627 c 44.50643,0 70.53475,-2.3843 93.98011,-18.4781 24.63749,-17.286 41.92347,-39.5392 41.92347,-81.6614 0,-40.7313 -17.28598,-64.1767 -41.92347,-79.0784 z m 44.50643,341.3485 c -29.60472,-21.0611 -62.98455,-23.4453 -106.29885,-23.4453 H 237.81213 v 217.5649 h 110.07396 c 43.3143,0 76.69413,-2.583 106.29885,-23.4454 29.60473,-19.6702 43.3143,-48.2815 43.3143,-85.2377 0,-38.5458 -13.70957,-64.5741 -43.3143,-85.4365 z"
   id="path4"
   style="stroke-width:1.98689;fill:#231f20;fill-opacity:1;stroke:none" />
<path
   class="st0"
   d="m 1218.1459,2549.8578 c -253.52776,0 -452.61459,-164.5148 -452.61459,-440.0971 0,-275.7809 199.08683,-441.4879 452.61459,-441.4879 253.5277,0 452.6145,165.707 452.6145,441.4879 0,275.5823 -199.0868,440.0971 -452.6145,440.0971 m 0,-710.9108 c -142.2617,0 -249.75266,102.5237 -249.75266,265.8465 0,163.3227 107.49096,267.0386 249.75266,267.0386 142.2616,0 249.7526,-103.9146 249.7526,-267.0386 0,-162.1306 -107.491,-265.8465 -249.7526,-265.8465 z"
   id="path6"
   style="stroke-width:1.98689;fill:#231f20;fill-opacity:1;stroke:none" />
<path
   class="st0"
   d="m 2401.3416,2433.6245 c -70.5348,59.4082 -180.6088,101.3316 -328.8311,101.3316 h -289.2918 v -853.1725 h 289.2918 c 148.421,0 258.495,42.1222 328.8311,102.5238 71.7268,59.4081 138.4865,158.3555 138.4865,323.8638 0,165.9057 -66.7597,264.853 -138.4865,325.4533 m -139.6787,-525.5336 c -35.7641,-33.3798 -95.1723,-60.6003 -178.0258,-60.6003 h -101.3316 v 517.9834 h 101.3316 c 82.8535,0 142.2617,-27.2204 178.0258,-61.7924 35.9628,-33.3798 75.502,-90.205 75.502,-195.3117 0,-105.1067 -39.7379,-165.707 -75.502,-200.279 z"
   id="path8"
   style="stroke-width:1.98689;fill:#231f20;fill-opacity:1;stroke:none" />
<polygon
   class="st0"
   points="3485.6,2158.5 3485.6,2332.1 3384.8,2332.1 3384.8,2158.5 3235.4,1902.7 3347.5,1902.7 3435.2,2073.8 3522.9,1902.7 3634.9,1902.7 "
   id="polygon10"
   transform="matrix(1.9868945,0,0,1.9868945,-3917.1816,-2098.6805)"
   style="fill:#231f20;fill-opacity:1;stroke:none" />
<path
   class="st1"
   d="m 3550.9587,2187.0509 135.3075,-1167.1018 c 0.3974,-3.9738 6.1594,-3.9738 6.5568,0 l 321.6782,3132.1405 c 0.3974,2.9803 4.7685,3.179 5.1659,0 l 262.6675,-1964.84 h 251.7395 l 57.4213,-125.373 h -412.8767 l -147.0302,1173.4598 c -0.3974,2.9804 -4.5699,2.7817 -4.9672,0 L 3704.943,101.60644 c -0.3973,-3.775098 -5.9607,-3.973787 -6.358,0 l -256.5081,1960.27016 -250.9448,-0.1987 -73.1177,125.373 z"
   id="path12"
   style="stroke-width:1.98689;stroke:none" />
<polygon
   class="st0"
   points="4320.3,2271.9 4139.3,2271.9 4130.5,2335.4 4279.4,2335.4 "
   id="polygon14"
   transform="matrix(1.9868945,0,0,1.9868945,-3917.1816,-2098.6805)"
   style="fill:#231f20;fill-opacity:1;stroke:none" />
<polygon
   class="st0"
   points="4158.3,1965.2 4329.5,1965.2 4289.7,1902.6 4103.5,1902.6 4079.1,2063.3 4144,2063.3 "
   id="polygon16"
   transform="matrix(1.9868945,0,0,1.9868945,-3917.1816,-2098.6805)"
   style="fill:#231f20;fill-opacity:1;stroke:none" />
<polygon
   class="st0"
   points="4607.2,2335.4 4680.7,2335.4 4537.2,2112.3 4670.3,1902.6 4598.7,1902.6 4497.6,2071.5 4397.1,1902.6 4325.6,1902.6 4458.7,2112.3 4315.8,2335.4 4388.6,2335.4 4497.6,2151.9 "
   id="polygon18"
   transform="matrix(1.9868945,0,0,1.9868945,-3917.1816,-2098.6805)"
   style="fill:#231f20;fill-opacity:1;stroke:none" />
<path
   class="st0"
   d="m 7358.6433,2472.965 3.1791,-3.179 c 0.3973,-0.3974 0.7947,-0.9935 1.1921,-1.3908 21.0611,-22.0546 37.751,-47.8842 49.275,-76.2968 l 4.5698,-11.1266 c 8.5437,-24.4388 13.1135,-50.6658 13.1135,-77.8863 0,-64.7727 -25.0348,-111.0674 -52.454,-144.6459 -28.6113,-33.7772 -81.0653,-62.3885 -97.3578,-69.9387 l -158.5542,-66.1635 c -52.454,-21.2598 -111.0674,-51.0632 -111.0674,-130.9364 0,-79.8732 64.7728,-119.8097 149.6132,-119.8097 60.9976,0 110.2726,24.6375 149.0171,55.2356 4.1724,-13.7095 8.941,-27.0217 15.299,-39.5392 9.7358,-19.4715 21.8559,-37.1549 35.7641,-53.05 -42.3208,-30.9956 -106.8949,-63.5807 -193.7222,-63.5807 -83.6482,0 -151.004,23.6441 -198.292,63.5807 -46.096,38.7444 -78.4824,95.967 -78.4824,165.9056 0,69.9387 25.0349,117.2268 56.2291,149.6132 31.1943,33.7772 67.3558,52.454 86.0326,61.1963 32.3863,16.2926 92.3906,39.9366 137.2944,57.4213 43.7117,17.4847 139.6787,52.454 139.6787,142.2616 0,90.9998 -74.906,144.646 -168.29,144.646 -93.5827,0 -174.648,-64.9715 -218.3597,-123.5849 l -71.5282,79.8732 c 41.1287,47.2881 127.5586,145.838 278.5626,145.838 86.0325,0 157.1634,-23.644 210.8095,-67.3557 6.3581,-5.3646 12.5174,-11.1266 18.4781,-17.0873"
   id="path20"
   style="stroke-width:1.98689;fill:#231f20;fill-opacity:1;stroke:none" />
<path
   class="st0"
   d="m 7847.4194,2158.2409 c -28.6113,-33.7772 -81.0653,-62.3885 -97.3579,-69.9386 l -158.3555,-66.1636 c -52.454,-21.2598 -111.0674,-51.0632 -111.0674,-130.9364 0,-79.8731 64.7728,-119.8097 149.6132,-119.8097 84.8404,0 147.2289,47.4868 189.5497,92.3906 l 63.5807,-82.2575 c -23.6441,-25.0348 -106.1002,-111.0674 -246.971,-111.0674 -83.6483,0 -151.004,23.6441 -198.2921,63.5807 -46.0959,38.7444 -78.681,95.967 -78.681,165.9057 0,69.9386 25.0349,117.2267 56.2291,149.6131 31.1942,33.7772 67.3557,52.454 86.0325,61.1964 32.3864,16.2925 92.3906,39.9365 137.2944,57.4212 43.7117,17.4847 139.6787,52.454 139.6787,142.2617 0,90.9997 -74.9059,144.6459 -168.4886,144.6459 -51.858,0 -99.9408,-19.869 -139.8774,-47.6855 -13.7096,33.5785 -33.3798,64.3754 -58.6134,90.4037 46.4933,32.3864 107.6897,59.6068 187.3642,59.6068 86.0325,0 157.1633,-23.644 210.8095,-67.3557 56.2291,-46.0959 89.8076,-112.2595 89.8076,-187.1654 0,-64.9715 -24.8362,-111.0674 -52.2553,-144.646"
   id="path22"
   style="stroke-width:1.98689;fill:#231f20;fill-opacity:1;stroke:none" />
<path
   class="st0"
   d="m 6836.6861,1805.9645 c 7.1529,-27.4191 37.155,-67.9517 55.037,-86.0325 5.3646,-5.3646 10.9279,-10.5305 16.6899,-15.2991 0.7948,-0.596 1.3909,-1.3908 2.1856,-1.9869 0,0 0,0 0,0 v 0 c 0,0 0,0 0,0 8.5437,-7.3515 17.8821,-13.9082 27.6178,-20.0676 l 1.7883,-0.9935 H 6434.34 v 63.382 c 9.3384,13.1135 17.6834,27.0217 24.6375,41.9235 19.2729,40.5326 29.6047,86.8272 29.6047,136.1022 v 0.5961 0 c 0,6.5567 -0.1987,13.1135 -0.596,19.4716 -2.7817,59.6068 -18.6769,112.4582 -43.1157,156.1699 -3.3777,6.1593 -6.9541,11.9213 -10.7292,17.6833 v 248.1632 l 96.1657,149.6131 17.0873,26.8231 h 355.058 c -2.5829,-1.5895 -5.1659,-3.179 -7.5502,-4.7686 -6.358,-4.1724 -12.3187,-8.5436 -18.0807,-12.7161 -2.1856,-1.7882 -4.3712,-3.3777 -6.5567,-5.1659 -3.3778,-2.583 -6.9542,-5.3646 -10.3319,-7.9476 -2.1856,-1.7882 -4.3712,-3.7751 -6.5567,-5.5633 -2.9804,-2.583 -5.9607,-5.1659 -8.7424,-7.5502 -2.1856,-1.9869 -3.9738,-3.7751 -6.1594,-5.762 -2.5829,-2.3843 -5.3646,-4.9672 -7.7488,-7.3515 -2.1856,-2.1856 -4.1725,-4.1725 -6.1594,-6.1594 -1.9869,-2.1856 -4.1725,-4.1724 -6.1594,-6.1593 -2.3843,-2.3843 -4.3712,-4.5699 -6.5567,-6.9542 -1.5896,-1.5895 -3.1791,-3.179 -4.5699,-4.7685 -2.3843,-2.583 -4.3712,-4.7686 -6.3581,-7.1528 -1.1921,-1.1922 -2.3842,-2.583 -3.3777,-3.7751 -2.5829,-2.9804 -4.7685,-5.5633 -7.1528,-8.1463 -0.3974,-0.3974 -21.6572,-25.6309 -22.0545,-26.0283 h -213.1938 v -228.4929 h 238.8247 v -125.1743 h -238.8247 v -255.9121 z"
   id="path24"
   style="stroke-width:1.98689;fill:#231f20;fill-opacity:1;stroke:none" />
<path
   class="st0"
   d="m 6238.2335,2187.0509 c 83.4496,-32.5851 178.6218,-112.4582 178.6218,-263.4622 0,-78.4823 -32.3863,-140.8708 -83.6482,-182.1982 -51.0632,-39.9366 -121.0019,-59.8056 -207.0344,-59.8056 h -243.1959 v 62.7859 c 8.941,12.5174 16.8886,25.8296 23.8427,39.7379 19.2729,39.3405 29.6047,84.2443 29.6047,131.9298 0.1987,65.9649 -16.4912,123.7835 -43.5129,170.8729 -3.1791,5.3646 -6.3581,10.7293 -9.7358,15.8952 v 438.7063 h 121.0018 v -354.462 h 100.5369 l 215.7767,354.462 h 145.8381 z m -145.838,-125.1743 H 6003.78 v -255.9121 h 88.6155 c 59.8055,0 120.2071,-7.1528 156.9646,16.69 34.7707,22.4519 39.3405,56.4278 39.3405,107.4909 0,52.4541 -11.9213,84.4431 -51.6592,111.8622 -33.1812,23.2467 -84.6417,19.869 -144.6459,19.869 z"
   id="path26"
   style="stroke-width:1.98689;fill:#231f20;fill-opacity:1;stroke:none" />
<path
   class="st0"
   d="m 5866.0882,1916.0385 c 0,-76.2968 -32.3864,-136.6983 -83.6483,-176.6349 -8.941,-6.7555 -18.6768,-12.5175 -28.6113,-18.0808 v 0.3974 c -48.6789,-28.81 -109.6765,-40.1353 -178.2244,-40.1353 h -142.4603 l -98.55,154.7791 v 520.169 l 104.312,163.9188 14.9017,21.2598 h 0.7947 v -354.6607 h 121.0019 c 68.3492,0 130.539,-17.6834 178.4231,-50.6658 2.1856,-1.5895 4.1725,-3.179 6.3581,-4.7685 1.9869,-1.5896 4.1725,-2.9804 6.1594,-4.5699 12.7161,-9.9345 24.0414,-19.869 34.1745,-30.3995 0.3974,-0.3974 0.7948,-0.7948 1.1922,-1.1921 v 0 c 43.513,-44.9038 64.1767,-97.7552 64.1767,-179.4166 m -175.6415,126.1678 c -31.1942,21.2598 -69.9387,19.8689 -124.777,19.8689 h -111.0674 v -255.912 h 111.0674 c 54.8383,0 111.2661,-3.9738 136.6984,19.869 24.8362,23.2466 37.751,53.6461 37.751,106.1001 0,53.4475 -19.6703,87.6221 -49.6724,110.074 z"
   id="path28"
   style="stroke-width:1.98689;fill:#231f20;fill-opacity:1;stroke:none" />













</svg>
